<svg xmlns="http://www.w3.org/2000/svg" width="1180" height="360" viewBox="0 0 1180 360" role="img"><defs><linearGradient id="b" x1="0" y1="0" x2="1" y2="1"><stop stop-color="#060817"/><stop offset="1" stop-color="#111827"/></linearGradient><style>.p{animation:p 3s ease-in-out infinite}@keyframes p{50%{opacity:.45}}</style></defs><rect width="1180" height="360" rx="24" fill="url(#b)"/><text x="40" y="48" font-family="ui-monospace,monospace" fill="#67e8f9" font-size="13" letter-spacing="3">TECH STACK / SIGNALS</text><g font-family="ui-monospace,monospace"><rect x="42" y="82" width="210" height="95" rx="18" fill="#0b1228" stroke="#22d3ee"/><text x="147" y="115" text-anchor="middle" fill="#a5f3fc" font-size="14">LANGUAGES</text><text x="147" y="145" text-anchor="middle" fill="#e2e8f0" font-size="16">Python • JS</text><rect x="270" y="82" width="210" height="95" rx="18" fill="#0b1228" stroke="#60a5fa"/><text x="375" y="115" text-anchor="middle" fill="#bfdbfe" font-size="14">BACKEND</text><text x="375" y="145" text-anchor="middle" fill="#e2e8f0" font-size="16">FastAPI • Flask</text><rect x="498" y="82" width="210" height="95" rx="18" fill="#0b1228" stroke="#a78bfa"/><text x="603" y="115" text-anchor="middle" fill="#ddd6fe" font-size="14">DATA</text><text x="603" y="145" text-anchor="middle" fill="#e2e8f0" font-size="16">MySQL • Mongo • Redis</text><rect x="726" y="82" width="185" height="95" rx="18" fill="#0b1228" stroke="#34d399"/><text x="818" y="115" text-anchor="middle" fill="#a7f3d0" font-size="14">INFRA</text><text x="818" y="145" text-anchor="middle" fill="#e2e8f0" font-size="16">Docker • AWS</text><rect x="929" y="82" width="210" height="95" rx="18" fill="#0b1228" stroke="#f472b6"/><text x="1034" y="115" text-anchor="middle" fill="#fbcfe8" font-size="14">QUALITY</text><text x="1034" y="145" text-anchor="middle" fill="#e2e8f0" font-size="16">Pytest • CI/CD</text></g><g class="p"><circle cx="160" cy="244" r="8" fill="#22d3ee"/><circle cx="375" cy="244" r="8" fill="#60a5fa"/><circle cx="590" cy="244" r="8" fill="#a78bfa"/><circle cx="805" cy="244" r="8" fill="#34d399"/><circle cx="1020" cy="244" r="8" fill="#f472b6"/></g><path d="M160 244H1020" stroke="#334155" stroke-width="2"/><text x="590" y="300" text-anchor="middle" font-family="ui-monospace,monospace" fill="#64748b" font-size="12">from request → service → database → cache → container → deployment</text></svg>